<?xml version="1.0" standalone="no"?><!DOCTYPE svg PUBLIC "-//W3C//DTD SVG 1.1//EN" "http://www.w3.org/Graphics/SVG/1.1/DTD/svg11.dtd"><svg class="icon" width="200px" height="200.00px" viewBox="0 0 1024 1024" version="1.1" xmlns="http://www.w3.org/2000/svg"><path fill="#515151" d="M778.842353 465.016471V191.548235c0-10.842353-5.722353-20.781176-15.058824-26.202353L527.058824 28.912941c-4.517647-2.710588-9.938824-3.915294-15.058824-3.915294s-10.541176 1.204706-15.058824 3.915294L260.216471 165.647059c-9.336471 5.12-15.058824 15.058824-15.058824 25.901176v273.468236c0 10.842353 5.722353 20.781176 15.058824 26.202353l43.369411 24.997647-43.369411 24.997647c-9.336471 5.421176-15.058824 15.36-15.058824 26.202353v273.468235c0 10.842353 5.722353 20.781176 15.058824 26.202353l236.724705 136.734117c4.517647 2.710588 9.938824 3.915294 15.058824 3.915295s10.541176-1.204706 15.058824-3.915295l236.724705-136.734117c9.336471-5.421176 15.058824-15.36 15.058824-26.202353v-273.468235c0-10.842353-5.722353-20.781176-15.058824-26.202353l-43.369411-24.997647 43.369411-24.997647c9.336471-5.421176 15.058824-15.36 15.058824-26.202353z m-60.235294 119.567058v238.832942L512 942.682353l-206.607059-119.265882v-238.832942l58.428235-33.731764 133.421177 77.101176c4.517647 2.710588 9.938824 3.915294 15.058823 3.915294s10.541176-1.204706 15.058824-3.915294l133.421176-77.101176 57.825883 33.731764z m-118.362353-68.367058L512 567.115294l-88.244706-50.898823L512 465.317647l88.244706 50.898824z m-73.185882-111.736471c-4.517647-2.710588-9.938824-3.915294-15.058824-3.915294s-10.541176 1.204706-15.058824 3.915294l-133.421176 77.101176-58.428235-33.731764V209.016471L512 89.750588l206.607059 119.265883v238.832941l-58.428235 33.731764-133.12-77.101176zM180.705882 481.882353c-16.564706 0-30.117647-13.552941-30.117647-30.117647v-150.588235c0-16.564706 13.552941-30.117647 30.117647-30.117647s30.117647 13.552941 30.117647 30.117647v150.588235c0 16.564706-13.552941 30.117647-30.117647 30.117647zM180.705882 843.294118c-16.564706 0-30.117647-13.552941-30.117647-30.117647v-60.235295c0-16.564706 13.552941-30.117647 30.117647-30.117647s30.117647 13.552941 30.117647 30.117647v60.235295c0 16.564706-13.552941 30.117647-30.117647 30.117647zM180.705882 572.235294c-8.131765 0-15.661176-3.312941-21.383529-8.734118-2.710588-3.011765-4.818824-6.324706-6.324706-9.938823S150.588235 546.032941 150.588235 542.117647s0.903529-7.830588 2.409412-11.444706 3.614118-6.927059 6.324706-9.938823c11.143529-11.143529 31.623529-11.143529 42.767059 0 2.710588 3.011765 4.818824 6.324706 6.324706 9.938823 1.505882 3.614118 2.409412 7.529412 2.409411 11.444706s-0.903529 7.830588-2.409411 11.444706-3.614118 6.927059-6.324706 9.938823c-5.722353 5.421176-13.552941 8.734118-21.38353 8.734118zM843.294118 752.941176c-16.564706 0-30.117647-13.552941-30.117647-30.117647v-150.588235c0-16.564706 13.552941-30.117647 30.117647-30.117647s30.117647 13.552941 30.117647 30.117647v150.588235c0 16.564706-13.552941 30.117647-30.117647 30.117647zM843.294118 301.176471c-16.564706 0-30.117647-13.552941-30.117647-30.117647V210.823529c0-16.564706 13.552941-30.117647 30.117647-30.117647s30.117647 13.552941 30.117647 30.117647v60.235295c0 16.564706-13.552941 30.117647-30.117647 30.117647z"  /><path fill="#515151" d="M843.294118 512c-1.807059 0-3.915294-0.301176-6.02353-0.602353a19.154824 19.154824 0 0 1-5.421176-1.807059 22.799059 22.799059 0 0 1-5.421177-2.710588c-1.505882-0.903529-3.011765-2.409412-4.517647-3.614118-2.710588-3.011765-4.818824-6.023529-6.324706-9.938823A25.238588 25.238588 0 0 1 813.176471 481.882353c0-3.915294 0.602353-7.830588 2.409411-11.444706 1.505882-3.614118 3.614118-6.927059 6.324706-9.938823l4.517647-3.614118c1.807059-1.204706 3.614118-2.108235 5.421177-2.710588 1.807059-0.903529 3.614118-1.505882 5.421176-1.807059 4.216471-0.602353 8.131765-0.602353 11.745883 0 2.108235 0.301176 3.915294 0.903529 5.722353 1.807059 1.807059 0.602353 3.614118 1.505882 5.12 2.710588 1.807059 1.204706 3.312941 2.409412 4.818823 3.614118 2.710588 3.011765 4.818824 6.324706 6.324706 9.938823 1.505882 3.614118 2.409412 7.529412 2.409412 11.444706s-0.903529 7.830588-2.409412 11.444706c-1.505882 3.915294-3.614118 6.927059-6.324706 9.938823-1.505882 1.204706-3.011765 2.710588-4.818823 3.614118-1.505882 1.204706-3.312941 2.108235-5.12 2.710588-1.807059 0.903529-3.614118 1.505882-5.722353 1.807059-1.807059 0.301176-3.915294 0.602353-5.722353 0.602353z"  /><path fill="#515151" d="M512 240.941176c16.564706 0 30.117647 13.552941 30.117647 30.117648s-13.552941 30.117647-30.117647 30.117647-30.117647-13.552941-30.117647-30.117647 13.552941-30.117647 30.117647-30.117648m0-60.235294c-49.995294 0-90.352941 40.357647-90.352941 90.352942s40.357647 90.352941 90.352941 90.352941 90.352941-40.357647 90.352941-90.352941-40.357647-90.352941-90.352941-90.352942z"  /><path fill="#515151" d="M512 722.823529c16.564706 0 30.117647 13.552941 30.117647 30.117647s-13.552941 30.117647-30.117647 30.117648-30.117647-13.552941-30.117647-30.117648 13.552941-30.117647 30.117647-30.117647m0-60.235294c-49.995294 0-90.352941 40.357647-90.352941 90.352941s40.357647 90.352941 90.352941 90.352942 90.352941-40.357647 90.352941-90.352942-40.357647-90.352941-90.352941-90.352941z"  /></svg>